<?xml version="1.0" encoding="UTF-8"?>
<svg width="58px" height="64px" viewBox="0 0 58 64" version="1.1" xmlns="http://www.w3.org/2000/svg" xmlns:xlink="http://www.w3.org/1999/xlink">
    <!-- Generator: Sketch 47.1 (45422) - http://www.bohemiancoding.com/sketch -->
    <title>Group 4</title>
    <desc>Created with Sketch.</desc>
    <defs>
        <linearGradient x1="-114.154011%" y1="142.054534%" x2="199.857455%" y2="-48.9072492%" id="linearGradient-1">
            <stop stop-color="#852EF6" offset="0%"></stop>
            <stop stop-color="#00FFD4" offset="100%"></stop>
        </linearGradient>
        <linearGradient x1="-245.752918%" y1="-220.439202%" x2="320.125516%" y2="287.317394%" id="linearGradient-2">
            <stop stop-color="#852EF6" offset="0%"></stop>
            <stop stop-color="#00FFD4" offset="100%"></stop>
        </linearGradient>
    </defs>
    <g id="Page-1" stroke="none" stroke-width="1" fill="none" fill-rule="evenodd">
        <g id="Landing-Page-New" transform="translate(-141.000000, -1504.000000)">
            <g id="Inspect" transform="translate(128.000000, 1495.000000)">
                <g id="Group-2">
                    <g id="Group-4">
                        <path d="M48.0663615,11.5941402 L64.9336385,21.1447281 C68.6875161,23.2702483 71,27.1983717 71,31.4494121 L71,50.5505881 C71,54.8016284 68.6875161,58.7297517 64.9336385,60.855272 L48.0663615,70.4058598 C44.3124839,72.5313801 39.6875161,72.5313801 35.9336384,70.4058598 L19.0663615,60.855272 C15.3124839,58.7297517 13,54.8016284 13,50.5505881 L13,31.4494121 C13,27.1983717 15.3124839,23.2702483 19.0663615,21.1447281 L35.9336384,11.5941402 C39.6875161,9.46861995 44.3124839,9.46861995 48.0663615,11.5941402 Z" id="Polygon" fill="url(#linearGradient-1)" fill-rule="nonzero" transform="translate(42.000000, 41.000000) rotate(60.000000) translate(-42.000000, -41.000000) "></path>
                        <g id="Icon-Blue" transform="translate(31.000000, 30.000000)">
                            <rect id="Rectangle-2" stroke="#FFFFFF" stroke-width="2" x="1" y="1" width="19" height="19" rx="3"></rect>
                            <rect id="Rectangle-4" fill="url(#linearGradient-2)" x="11" y="11" width="11" height="11"></rect>
                            <path d="M21,13.7523949 C21,13.6490599 20.9601273,13.5577911 20.8807159,13.4782127 L19.5216203,12.1192423 C19.4422089,12.0396639 19.3510236,12 19.2476051,12 C19.1441866,12 19.0530012,12.0397892 18.9735898,12.1192423 L15.0155872,16.0768274 L13.2994326,14.3603388 C13.1485844,14.2093236 12.9693869,14.1337951 12.7627586,14.1337951 C12.5562973,14.1337951 12.3775173,14.2093236 12.2263768,14.3603388 C12.0754868,14.5113123 12,14.6900924 12,14.8967206 L12,20.2369909 C12,20.4437445 12.0754868,20.6224827 12.2263768,20.7735397 C12.3775173,20.9244715 12.5562555,21 12.7627586,21 L18.1030288,21 C18.3096571,21 18.4888129,20.9244715 18.6397029,20.7735397 C18.7905512,20.6225245 18.8662884,20.4437862 18.8662884,20.2369909 C18.8662884,20.0304044 18.7905929,19.8515826 18.6397029,19.7006091 L16.9231308,17.984037 L20.8809247,14.0265354 C20.9601273,13.947124 21,13.8556882 21,13.7523949 Z" id="Shape" fill="#FFFFFF" fill-rule="nonzero" transform="translate(16.500000, 16.500000) rotate(-270.000000) translate(-16.500000, -16.500000) "></path>
                        </g>
                    </g>
                </g>
            </g>
        </g>
    </g>
</svg>