<?xml version="1.0" encoding="UTF-8"?>
<svg width="60px" height="66px" viewBox="0 0 60 66" version="1.1" xmlns="http://www.w3.org/2000/svg" xmlns:xlink="http://www.w3.org/1999/xlink">
    <!-- Generator: Sketch 47.1 (45422) - http://www.bohemiancoding.com/sketch -->
    <title>Group 7</title>
    <desc>Created with Sketch.</desc>
    <defs></defs>
    <g id="Page-1" stroke="none" stroke-width="1" fill="none" fill-rule="evenodd">
        <g id="Landing-Page-New" transform="translate(-796.000000, -1179.000000)" fill-rule="nonzero">
            <g id="Work-Flow" transform="translate(138.000000, 1083.000000)">
                <g id="Feature-Part-5" transform="translate(9.000000, 88.000000)">
                    <g id="4" transform="translate(629.000000, 0.000000)">
                        <g id="Group-7" transform="translate(8.000000, 0.000000)">
                            <path d="M48.0663615,11.5941402 L64.9336385,21.1447281 L64.9336385,21.1447281 C68.6875161,23.2702483 71,27.1983717 71,31.4494121 L71,50.5505881 L71,50.5505881 C71,54.8016284 68.6875161,58.7297517 64.9336385,60.855272 L48.0663615,70.4058598 L48.0663615,70.4058598 C44.3124839,72.5313801 39.6875161,72.5313801 35.9336384,70.4058598 L19.0663615,60.855272 L19.0663615,60.855272 C15.3124839,58.7297517 13,54.8016284 13,50.5505881 L13,31.4494121 L13,31.4494121 C13,27.1983717 15.3124839,23.2702483 19.0663615,21.1447281 L35.9336384,11.5941402 L35.9336384,11.5941402 C39.6875161,9.46861995 44.3124839,9.46861995 48.0663615,11.5941402 Z" id="Polygon" stroke="#00AEEE" stroke-width="1.5" fill="#FFFFFF" transform="translate(42.000000, 41.000000) rotate(60.000000) translate(-42.000000, -41.000000) "></path>
                            <g id="Icon" transform="translate(28.000000, 29.000000)">
                                <path d="M24.5789474,0.0186842105 L2.36842105,0.0186842105 C1.06247368,0.0186842105 0,1.08115789 0,2.38710526 L0,17.0330526 C0,18.339 1.06247368,19.4014737 2.36842105,19.4014737 L10.3417895,19.4014737 L10.3417895,22.4023158 L9.153,22.4023158 C8.717,22.4023158 8.36352632,22.7557895 8.36352632,23.1917895 C8.36352632,23.6277895 8.717,23.9812632 9.153,23.9812632 L17.7944211,23.9812632 C18.2304211,23.9812632 18.5838947,23.6277895 18.5838947,23.1917895 C18.5838947,22.7557895 18.2304211,22.4023158 17.7944211,22.4023158 L16.6056316,22.4023158 L16.6056316,19.4014737 L24.5789474,19.4014737 C25.8848947,19.4014737 26.9473684,18.339 26.9473684,17.0330526 L26.9473684,2.38710526 C26.9473684,1.08115789 25.8848947,0.0186842105 24.5789474,0.0186842105 Z M15.0266316,22.4023684 L11.9207368,22.4023684 L11.9207368,19.4015263 L15.0266316,19.4015263 L15.0266316,22.4023684 Z M25.3684211,17.0331053 C25.3684211,17.4684211 25.0142632,17.8225789 24.5789474,17.8225789 L2.36842105,17.8225789 C1.93310526,17.8225789 1.57894737,17.4684211 1.57894737,17.0331053 L1.57894737,15.8329474 L25.3684211,15.8329474 L25.3684211,17.0331053 Z M25.3684211,14.254 L1.57894737,14.254 L1.57894737,2.38710526 C1.57894737,1.95178947 1.93310526,1.59763158 2.36842105,1.59763158 L24.5789474,1.59763158 C25.0142632,1.59763158 25.3684211,1.95178947 25.3684211,2.38710526 L25.3684211,14.254 Z" id="Shape" fill="#00AEEE"></path>
                                <path d="M22.9243158,4.87273684 L16.0241579,4.87273684 C15.5881579,4.87273684 15.2346842,5.22621053 15.2346842,5.66221053 C15.2346842,6.09821053 15.5881579,6.45168421 16.0241579,6.45168421 L22.9243158,6.45168421 C23.3603158,6.45168421 23.7137895,6.09821053 23.7137895,5.66221053 C23.7137895,5.22621053 23.3603158,4.87273684 22.9243158,4.87273684 Z" id="Shape" fill="#00AEEE"></path>
                                <path d="M22.9243158,7.34157895 L16.0241579,7.34157895 C15.5881579,7.34157895 15.2346842,7.69505263 15.2346842,8.13105263 C15.2346842,8.56705263 15.5881579,8.92052632 16.0241579,8.92052632 L22.9243158,8.92052632 C23.3603158,8.92052632 23.7137895,8.56705263 23.7137895,8.13105263 C23.7137895,7.69505263 23.3603158,7.34157895 22.9243158,7.34157895 Z" id="Shape" fill="#00AEEE"></path>
                                <path d="M22.9243158,9.81047368 L16.0241579,9.81047368 C15.5881579,9.81047368 15.2346842,10.1639474 15.2346842,10.5999474 C15.2346842,11.0359474 15.5881579,11.3894211 16.0241579,11.3894211 L22.9243158,11.3894211 C23.3603158,11.3894211 23.7137895,11.0359474 23.7137895,10.5999474 C23.7137895,10.1639474 23.3603158,9.81047368 22.9243158,9.81047368 Z" id="Shape" fill="#00AEEE"></path>
                                <path d="M12.7848947,4.63189474 L4.02305263,4.63189474 C3.58705263,4.63189474 3.23357895,4.98536842 3.23357895,5.42136842 L3.23357895,10.8408421 C3.23357895,11.2768421 3.58705263,11.6303158 4.02305263,11.6303158 L12.7848947,11.6303158 C13.2208947,11.6303158 13.5743684,11.2768421 13.5743684,10.8408421 L13.5743684,5.42136842 C13.5743684,4.98536842 13.2208947,4.63189474 12.7848947,4.63189474 Z M11.9954211,10.0513158 L4.81252632,10.0513158 L4.81252632,6.21078947 L11.9954211,6.21078947 L11.9954211,10.0513158 Z" id="Shape" fill="#72CBEB"></path>
                            </g>
                        </g>
                    </g>
                </g>
            </g>
        </g>
    </g>
</svg>