<?xml version="1.0" encoding="UTF-8"?>
<svg width="60px" height="66px" viewBox="0 0 60 66" version="1.1" xmlns="http://www.w3.org/2000/svg" xmlns:xlink="http://www.w3.org/1999/xlink">
    <!-- Generator: Sketch 47.1 (45422) - http://www.bohemiancoding.com/sketch -->
    <title>Group 6</title>
    <desc>Created with Sketch.</desc>
    <defs></defs>
    <g id="Page-1" stroke="none" stroke-width="1" fill="none" fill-rule="evenodd">
        <g id="Landing-Page-New" transform="translate(-586.000000, -1179.000000)" fill-rule="nonzero">
            <g id="Work-Flow" transform="translate(138.000000, 1083.000000)">
                <g id="Feature-Part-5" transform="translate(9.000000, 88.000000)">
                    <g id="3" transform="translate(410.666667, 0.000000)">
                        <g id="Group-6" transform="translate(16.000000, 0.000000)">
                            <path d="M48.0663615,11.5941402 L64.9336385,21.1447281 L64.9336385,21.1447281 C68.6875161,23.2702483 71,27.1983717 71,31.4494121 L71,50.5505881 L71,50.5505881 C71,54.8016284 68.6875161,58.7297517 64.9336385,60.855272 L48.0663615,70.4058598 L48.0663615,70.4058598 C44.3124839,72.5313801 39.6875161,72.5313801 35.9336384,70.4058598 L19.0663615,60.855272 L19.0663615,60.855272 C15.3124839,58.7297517 13,54.8016284 13,50.5505881 L13,31.4494121 L13,31.4494121 C13,27.1983717 15.3124839,23.2702483 19.0663615,21.1447281 L35.9336384,11.5941402 L35.9336384,11.5941402 C39.6875161,9.46861995 44.3124839,9.46861995 48.0663615,11.5941402 Z" id="Polygon" stroke="#00AEEE" stroke-width="1.5" fill="#FFFFFF" transform="translate(42.000000, 41.000000) rotate(60.000000) translate(-42.000000, -41.000000) "></path>
                            <g id="Icon-Blue" transform="translate(41.500000, 41.000000) rotate(-1.000000) translate(-41.500000, -41.000000) translate(31.000000, 29.000000)">
                                <path d="M3.74540625,0 C2.34510937,0 1.20590625,1.13920312 1.20590625,2.53954687 C1.20590625,3.93989062 2.34510937,5.07909375 3.74545312,5.07909375 C5.14579687,5.07909375 6.285,3.93989062 6.285,2.53954687 C6.285,1.13920312 5.14575,0 3.74540625,0 Z" id="Shape" fill="#00AEEE"></path>
                                <path d="M5.42859375,5.134875 L2.0064375,5.134875 C0.91865625,5.134875 0.033796875,6.01973437 0.033796875,7.10751562 L0.033796875,9.934875 C0.033796875,10.39725 0.40865625,10.7720625 0.870984375,10.7720625 L6.564,10.7720625 C7.026375,10.7720625 7.4011875,10.3972031 7.4011875,9.934875 L7.4011875,7.10751562 C7.40123437,6.01978125 6.516375,5.134875 5.42859375,5.134875 Z" id="Shape" fill="#00AEEE"></path>
                                <path d="M16.9733438,13.2278906 C15.5730469,13.2278906 14.4337969,14.3670938 14.4337969,15.7674375 C14.4337969,17.1677344 15.573,18.3069844 16.9733438,18.3069844 C18.3736875,18.3069844 19.5128906,17.1677813 19.5128906,15.7674375 C19.5128438,14.3671406 18.3736406,13.2278906 16.9733438,13.2278906 Z" id="Shape" fill="#00AEEE"></path>
                                <path d="M18.7123125,18.3628125 L15.2901563,18.3628125 C14.2024219,18.3628125 13.3175156,19.2476719 13.3175156,20.3354531 L13.3175156,23.1628125 C13.3175156,23.6251875 13.692375,24 14.1547031,24 L19.8477188,24 C20.3100938,24 20.6849063,23.6251406 20.6849063,23.1628125 L20.6849063,20.3354531 C20.6849531,19.2476719 19.8000938,18.3628125 18.7123125,18.3628125 Z" id="Shape" fill="#00AEEE"></path>
                                <path d="M17.6791406,10.5716719 C17.0010469,7.0786875 13.9227187,4.54340625 10.3594219,4.54340625 C9.89704687,4.54340625 9.52223437,4.91826562 9.52223437,5.38059375 C9.52223437,5.84296875 9.89709375,6.21778125 10.3594219,6.21778125 C13.1226562,6.21778125 15.5097656,8.1830625 16.035375,10.8907031 C16.113,11.2907812 16.4634844,11.5685625 16.8562969,11.5685625 C16.9092187,11.5685625 16.9628906,11.5635469 17.0167969,11.553 C17.4707344,11.4649687 17.7672656,11.0255625 17.6791406,10.5716719 Z" id="Shape" fill="#7FD6F6"></path>
                                <path d="M10.3593281,17.7821719 C7.59609375,17.7821719 5.20898438,15.8168906 4.683375,13.10925 C4.59529688,12.6553125 4.15565625,12.3586406 3.702,12.4469063 C3.2480625,12.5349844 2.95153125,12.9743906 3.03965625,13.4282813 C3.71775,16.9212656 6.79607813,19.4565 10.359375,19.4565 C10.82175,19.4565 11.1965156,19.0816875 11.1965156,18.6193594 C11.1965156,18.1569844 10.8217031,17.7821719 10.3593281,17.7821719 Z" id="Shape" fill="#7FD6F6"></path>
                            </g>
                        </g>
                    </g>
                </g>
            </g>
        </g>
    </g>
</svg>