<?xml version="1.0" encoding="UTF-8"?>
<svg width="57px" height="33px" viewBox="0 0 57 33" version="1.1" xmlns="http://www.w3.org/2000/svg" xmlns:xlink="http://www.w3.org/1999/xlink">
    <!-- Generator: Sketch 47.1 (45422) - http://www.bohemiancoding.com/sketch -->
    <title>Tag Icon</title>
    <desc>Created with Sketch.</desc>
    <defs></defs>
    <g id="Page-1" stroke="none" stroke-width="1" fill="none" fill-rule="evenodd">
        <g id="Landing-Page-New" transform="translate(-863.000000, -1178.000000)" fill-rule="nonzero" fill="#18C019">
            <g id="Work-Flow" transform="translate(138.000000, 1083.000000)">
                <g id="Feature-Part-5" transform="translate(9.000000, 88.000000)">
                    <g id="Tag-Icon" transform="translate(716.000000, 7.000000)">
                        <g id="tag" transform="translate(28.500000, 16.500000) rotate(-90.000000) translate(-28.500000, -16.500000) translate(12.500000, -11.500000)" stroke="#FFFFFF" stroke-width="0.2">
                            <path d="M31.586,11.2382111 L16.586,0.193248651 C16.236,-0.0644162171 15.764,-0.0644162171 15.414,0.193248651 L0.414,11.2382111 C0.154,11.4296775 0,11.7372458 0,12.0641645 L0,54.451563 C0,55.0137409 0.448,55.4700012 1,55.4700012 L31,55.4700012 C31.552,55.4700012 32,55.0137409 32,54.451563 L32,12.0641645 C32.001,11.7372458 31.847,11.4296775 31.586,11.2382111 Z M30.001,53.4331248 L2.001,53.4331248 L2.001,12.5845864 L16.001,2.2759548 L30.001,12.5845864 L30.001,53.4331248 Z" id="Shape"></path>
                        </g>
                        <g id="smile" transform="translate(21.000000, 7.000000)">
                            <path d="M18.6591628,4.98041183 C17.7649066,3.44838438 16.551905,2.23537728 15.0198389,1.34116252 C13.487408,0.446993364 11.8145996,0 10.0003192,0 C8.18603888,0 6.51277444,0.446993364 4.98070836,1.34116252 C3.44855107,2.23524046 2.23554952,3.44824755 1.34129322,4.98041183 C0.446991326,6.51266732 0,8.18593939 0,10.0000912 C0,11.8143343 0.447128146,13.4873327 1.3411564,15.0196794 C2.23536709,16.5517068 3.44836865,17.7647139 4.98052594,18.6590199 C6.51277444,19.5530522 8.18590206,20 10.0001368,20 C11.8143716,20 13.4876816,19.5530066 15.0198389,18.6590199 C16.551905,17.7647595 17.7648609,16.5517068 18.659026,15.0196794 C19.5530543,13.4873327 20,11.814243 20,10.0000912 C20.0000456,8.18575696 19.5530543,6.51243929 18.6591628,4.98041183 Z M17.6695429,13.2357193 C17.2267474,14.2644289 16.6344531,15.1499783 15.8922952,15.892094 C15.1502285,16.6340729 14.2646375,17.2265523 13.2359326,17.6691674 C12.2072734,18.1121018 11.1288116,18.3333865 10.0003192,18.3333865 C8.87182691,18.3333865 7.79336514,18.1117825 6.76461467,17.6691674 C5.73600102,17.2265523 4.85045561,16.6340729 4.10825208,15.892094 C3.36627658,15.1498415 2.77384547,14.2645201 2.33095874,13.2357193 C1.88825445,12.2071922 1.66683389,11.1284063 1.66683389,10.0000912 C1.66683389,8.87159373 1.88820884,7.79312704 2.33095874,6.76437188 C2.77366304,5.73575354 3.36609415,4.85034091 4.10825208,4.10799717 C4.85045561,3.36601829 5.73600102,2.77353887 6.76461467,2.33069573 C7.79322832,1.88812624 8.87187252,1.66675028 10.0003192,1.66675028 C11.1286292,1.66675028 12.2074558,1.88798942 13.2359326,2.33069573 C14.2646375,2.77340205 15.1500461,3.36588147 15.8922952,4.10799717 C16.6344075,4.85020409 17.2267474,5.73561672 17.6695429,6.76437188 C18.1123384,7.79299022 18.333759,8.87145691 18.333759,10.0000912 C18.3339414,11.1285887 18.1123384,12.207329 17.6695429,13.2357193 Z" id="Shape"></path>
                            <path d="M14.4011948,11.0455391 C14.1755475,10.9693572 13.9544539,10.9890491 13.7375821,11.1024269 C13.5207102,11.2158047 13.3762712,11.3957671 13.3045024,11.6419163 C13.0789974,12.3992104 12.6611917,13.0121468 12.0516546,13.4804767 C11.4424021,13.9489557 10.7583449,14.1833196 9.99986258,14.1833196 C9.24156996,14.1833196 8.55774997,13.9488065 7.94821286,13.4804767 C7.33881806,13.0119976 6.92124957,12.3992104 6.69550739,11.6419163 C6.62335906,11.3958169 6.48105468,11.2158047 6.26897372,11.1024269 C6.05679788,10.9890988 5.83793374,10.9693572 5.61219156,11.0455391 C5.37743676,11.1211243 5.20595998,11.2702062 5.09752404,11.4924366 C4.98918297,11.7146671 4.97106288,11.9447544 5.04340094,12.1809582 C5.37729446,13.3265713 6.00030304,14.2492577 6.91218953,14.9497138 C7.82417088,15.6501698 8.85341104,16 10.0000049,16 C11.1464564,16 12.1759812,15.6501698 13.0879151,14.9497138 C13.9992324,14.2489096 14.6222884,13.3265713 14.9563242,12.1809582 C15.0290418,11.9447544 15.0108742,11.7146671 14.9024383,11.4924366 C14.7936703,11.2702062 14.6265101,11.1215221 14.4011948,11.0455391 Z" id="Shape"></path>
                            <path d="M6.50004104,8 C6.91397143,8 7.26752586,7.85322607 7.5604991,7.56045805 C7.85351338,7.26760795 8,6.91405352 8,6.5 C8,6.08590543 7.85351338,5.73251519 7.5604991,5.43954195 C7.26748481,5.14656871 6.91397143,5 6.50004104,5 C6.08598752,5 5.7324331,5.14656871 5.43945986,5.43954195 C5.14660975,5.73255623 5,6.08594648 5,6.5 C5,6.91405352 5.14644558,7.26760795 5.43945986,7.56045805 C5.73255623,7.8533492 6.08594648,8 6.50004104,8 Z" id="Shape"></path>
                            <path d="M13.5001642,5 C13.0861036,5 12.7324551,5.14656871 12.4394648,5.43954195 C12.1467619,5.73255623 12,6.08594648 12,6.5 C12,6.91405352 12.1467619,7.26760795 12.4394648,7.56045805 C12.7324551,7.85339025 13.0861036,8 13.5001642,8 C13.9138964,8 14.2675449,7.85322607 14.5605352,7.56045805 C14.8535254,7.26760795 15,6.91405352 15,6.5 C15,6.08590543 14.8535254,5.73251519 14.5605352,5.43954195 C14.2675449,5.14656871 13.9138964,5 13.5001642,5 Z" id="Shape"></path>
                        </g>
                    </g>
                </g>
            </g>
        </g>
    </g>
</svg>