<?xml version="1.0" encoding="UTF-8"?>
<svg width="60px" height="66px" viewBox="0 0 60 66" version="1.1" xmlns="http://www.w3.org/2000/svg" xmlns:xlink="http://www.w3.org/1999/xlink">
    <!-- Generator: Sketch 47.1 (45422) - http://www.bohemiancoding.com/sketch -->
    <title>Group 5</title>
    <desc>Created with Sketch.</desc>
    <defs></defs>
    <g id="Page-1" stroke="none" stroke-width="1" fill="none" fill-rule="evenodd">
        <g id="Landing-Page-New" transform="translate(-375.000000, -1179.000000)" fill-rule="nonzero">
            <g id="Work-Flow" transform="translate(138.000000, 1083.000000)">
                <g id="Feature-Part-5" transform="translate(9.000000, 88.000000)">
                    <g id="2" transform="translate(215.333333, 0.000000)">
                        <g id="Group-5" transform="translate(1.000000, 0.000000)">
                            <path d="M48.0663615,11.5941402 L64.9336385,21.1447281 L64.9336385,21.1447281 C68.6875161,23.2702483 71,27.1983717 71,31.4494121 L71,50.5505881 L71,50.5505881 C71,54.8016284 68.6875161,58.7297517 64.9336385,60.855272 L48.0663615,70.4058598 L48.0663615,70.4058598 C44.3124839,72.5313801 39.6875161,72.5313801 35.9336384,70.4058598 L19.0663615,60.855272 L19.0663615,60.855272 C15.3124839,58.7297517 13,54.8016284 13,50.5505881 L13,31.4494121 L13,31.4494121 C13,27.1983717 15.3124839,23.2702483 19.0663615,21.1447281 L35.9336384,11.5941402 L35.9336384,11.5941402 C39.6875161,9.46861995 44.3124839,9.46861995 48.0663615,11.5941402 Z" id="Polygon" stroke="#00AEEE" stroke-width="1.5" fill="#FFFFFF" transform="translate(42.000000, 41.000000) rotate(60.000000) translate(-42.000000, -41.000000) "></path>
                            <g id="Icon-Blue" transform="translate(26.000000, 30.000000)">
                                <path d="M27.8302078,9.07211446 C26.8752229,3.88803916 22.3733193,0 17.0528373,0 C11.1866596,0 6.34363554,4.70654819 6.13906024,10.5045572 C2.72847892,10.5045572 0,13.3012048 0,16.7117861 C0,20.1223675 2.79664759,22.9190151 6.20722892,22.9190151 L25.7156627,22.9190151 C28.7851928,22.9190151 31.5136024,20.9408765 32.4003494,18.0078223 C32.604994,17.3257199 32.7414006,16.5753795 32.7414006,15.8250392 C32.7414006,12.6873404 30.7633313,10.0270994 27.8302078,9.07211446 Z M31.1725512,17.5985331 C30.4222108,19.9859608 28.239497,21.5548102 25.7838313,21.5548102 L6.27539759,21.5548102 C3.61515663,21.5548102 1.43237349,19.3720271 1.43237349,16.7117861 C1.43237349,14.0515452 3.61515663,11.868762 6.27539759,11.868762 C6.41180422,11.868762 6.6164488,11.868762 6.75285542,11.868762 L7.57136446,12.0051687 L7.50312651,11.0501837 C7.50312651,10.9819458 7.50312651,10.9819458 7.50312651,10.9137771 C7.50312651,5.66146386 11.8004548,1.36420482 17.0526988,1.36420482 C21.8274849,1.36420482 25.9201687,4.91119277 26.5340331,9.68597892 L26.6024096,10.163506 L27.0798675,10.2999127 C29.6718705,10.9138464 31.4453645,13.1647982 31.4453645,15.8250392 C31.4454337,16.4389729 31.3771958,17.0529066 31.1725512,17.5985331 Z" id="Shape" fill="#00AEEE"></path>
                                <g id="synchronize" transform="translate(11.000000, 6.500000)" fill="#71C5E3">
                                    <path d="M0.998589362,5.49995319 C0.998589362,3.84344681 2.33782766,2.50420851 3.99433404,2.50420851 C3.99566809,2.50420851 3.99695532,2.50402128 3.99828936,2.50399787 L6.78302128,2.50399787 L6.13748511,3.14953404 C5.94250426,3.34451489 5.94250426,3.66065957 6.13748511,3.85564043 C6.33246596,4.05062128 6.64861064,4.05062128 6.84359149,3.85564043 L8.34146383,2.35776809 C8.34155745,2.35767447 8.34162766,2.35758085 8.34172128,2.35748723 C8.35323617,2.34594894 8.36416596,2.33380213 8.37453404,2.32118723 C8.37928511,2.31540638 8.38340426,2.30932128 8.38782766,2.3034 C8.39314043,2.29628511 8.39866383,2.28933404 8.40360213,2.2819383 C8.40835319,2.27484681 8.41247234,2.26747447 8.41682553,2.26017234 C8.42082766,2.25347872 8.42501702,2.24694894 8.42871489,2.24004468 C8.43269362,2.23260213 8.43606383,2.22494894 8.43964468,2.21736596 C8.4430383,2.21018085 8.44661915,2.20311277 8.4496617,2.19576383 C8.45270426,2.18839149 8.4551617,2.18087872 8.45785319,2.17338936 C8.46068511,2.16550213 8.46370426,2.15770851 8.4661617,2.14963404 C8.46843191,2.14214468 8.47009362,2.1345383 8.47198936,2.12697872 C8.47407234,2.11876383 8.47636596,2.11064255 8.47802766,2.10226383 C8.47975957,2.09348723 8.48078936,2.08464043 8.48205319,2.07581702 C8.48308298,2.0685383 8.48448723,2.06135319 8.48521277,2.05398085 C8.48844255,2.02121489 8.48844255,1.98819149 8.48521277,1.95542553 C8.48448723,1.94805319 8.48310638,1.94089149 8.48205319,1.93361277 C8.48078936,1.92476596 8.47975957,1.91591915 8.47800426,1.90716596 C8.47634255,1.89878723 8.47404894,1.89068936 8.47196596,1.88247447 C8.47007021,1.87489149 8.46840851,1.86728511 8.4661383,1.85979574 C8.46370426,1.85174468 8.46068511,1.84395106 8.45785319,1.83608723 C8.4551617,1.82859787 8.45270426,1.8210617 8.4496617,1.81368936 C8.44661915,1.80634043 8.4430383,1.79927234 8.43964468,1.79211064 C8.43606383,1.78450426 8.43269362,1.77685106 8.42871489,1.76940851 C8.42504043,1.76252766 8.42082766,1.75599787 8.41684894,1.74930426 C8.41249574,1.74200213 8.4083766,1.73462979 8.40362553,1.72751489 C8.39868723,1.72014255 8.39318723,1.71319149 8.38787447,1.7061 C8.38342766,1.70015532 8.37928511,1.69404681 8.37453404,1.68826596 C8.36416596,1.67565106 8.35325957,1.66350426 8.34172128,1.65196596 C8.34162766,1.65187234 8.34155745,1.65177872 8.34146383,1.65168511 L6.84359149,0.153812766 C6.64861064,-0.0411680851 6.33246596,-0.0411680851 6.13748511,0.153812766 C5.94250426,0.348793617 5.94250426,0.664938298 6.13748511,0.859919149 L6.78302128,1.50545532 L3.9940766,1.50545532 C3.99227447,1.50545532 3.99051915,1.50571277 3.98871702,1.50573617 C1.78331064,1.50873191 0,3.29382128 0,5.49995319 C0,6.49505532 0.397708511,7.43199787 1.09075532,8.12562979 C1.28566596,8.32070426 1.60178723,8.32084468 1.7968617,8.12593404 C1.99193617,7.9310234 1.9920766,7.61490213 1.79716596,7.41982766 C1.28896596,6.91120638 0.998589362,6.2270766 0.998589362,5.49995319 Z" id="Shape"></path>
                                    <path d="M11.9824872,5.49955532 C11.9824872,4.50445319 11.5847787,3.56751064 10.8917319,2.87387872 C10.6968213,2.67880426 10.3807,2.67866383 10.1856255,2.87357447 C9.99055106,3.06848511 9.99041064,3.38460638 10.1853213,3.57968085 C10.6934979,4.08830213 10.9838979,4.77243191 10.9838979,5.49955532 C10.9838979,7.1560617 9.64465957,8.4953 7.98815319,8.4953 C7.98681915,8.4953 7.98553191,8.49548723 7.98419787,8.49551064 L5.19946596,8.49551064 L5.84500213,7.84997447 C6.03998298,7.65499362 6.03998298,7.33884894 5.84500213,7.14386809 C5.65002128,6.94888723 5.3338766,6.94888723 5.13889574,7.14386809 L3.6410234,8.64174043 C3.64092979,8.64183404 3.64088298,8.64192766 3.64078936,8.64199787 C3.62925106,8.65355957 3.61832128,8.66568298 3.60795319,8.67832128 C3.60320213,8.68410213 3.59908298,8.69018723 3.59463617,8.69613191 C3.5893234,8.7032234 3.5838234,8.71017447 3.57888511,8.71754681 C3.57413404,8.7246617 3.57001489,8.73203404 3.5656617,8.73931277 C3.56165957,8.74600638 3.55747021,8.75253617 3.55377234,8.75944043 C3.54979362,8.76685957 3.54644681,8.77448936 3.54286596,8.78207234 C3.53947234,8.78928085 3.53586809,8.79634894 3.53280213,8.80372128 C3.52975957,8.81107021 3.52732553,8.81855957 3.52463404,8.82600213 C3.52177872,8.83391277 3.51875957,8.84172979 3.51630213,8.84982766 C3.51405532,8.85727021 3.51239362,8.86482979 3.51049787,8.87236596 C3.50841489,8.88062766 3.50609787,8.88879574 3.50443617,8.89719787 C3.50270426,8.90590426 3.50169787,8.91468085 3.50043404,8.92345745 C3.49938085,8.93080638 3.4979766,8.9380383 3.49725106,8.94548085 C3.49565957,8.9617 3.49479362,8.97794255 3.49479362,8.99423191 C3.49479362,8.99439574 3.49477021,8.99458298 3.49477021,8.99474681 C3.49477021,8.99491064 3.49479362,8.99509787 3.49479362,8.9952617 C3.49481702,9.01152766 3.49565957,9.02779362 3.49725106,9.04401277 C3.4979766,9.05145532 3.49938085,9.05868723 3.50043404,9.06601277 C3.50169787,9.07478936 3.50272766,9.08356596 3.50443617,9.09227234 C3.50609787,9.10067447 3.50841489,9.10884255 3.51049787,9.11710426 C3.51239362,9.12464043 3.51403191,9.1322 3.51630213,9.13966596 C3.51875957,9.14776383 3.52177872,9.15558085 3.52463404,9.16349149 C3.52730213,9.17093404 3.52975957,9.17844681 3.53280213,9.18579574 C3.53586809,9.19319149 3.53944894,9.20025957 3.54286596,9.20746809 C3.5464234,9.21502766 3.54979362,9.22265745 3.55374894,9.2300766 C3.55744681,9.23698085 3.56165957,9.24353404 3.5656617,9.25022766 C3.57001489,9.25750638 3.57411064,9.26487872 3.5788617,9.27197021 C3.5838,9.27936596 3.5893234,9.28631702 3.59463617,9.29343191 C3.59908298,9.29935319 3.60317872,9.3054383 3.60792979,9.31119574 C3.61836809,9.32392766 3.62936809,9.33616809 3.641,9.3477766 L5.13887234,10.8456489 C5.33385319,11.0406298 5.64999787,11.0406298 5.84497872,10.8456489 C6.03995957,10.6506681 6.03995957,10.3345234 5.84497872,10.1395426 L5.19944255,9.49400638 L7.98836383,9.49400638 C7.99016596,9.49400638 7.99192128,9.49374894 7.9937234,9.49372553 C10.1991766,9.4907766 11.9824872,7.70568723 11.9824872,5.49955532 Z" id="Shape"></path>
                                </g>
                            </g>
                        </g>
                    </g>
                </g>
            </g>
        </g>
    </g>
</svg>